<?xml version="1.0" encoding="UTF-8"?>
<svg width="420px" height="420px" viewBox="0 0 420 420" version="1.1" xmlns="http://www.w3.org/2000/svg" xmlns:xlink="http://www.w3.org/1999/xlink">
    <!-- Generator: Sketch 57.1 (83088) - https://sketch.com -->
    <title>Artboard</title>
    <desc>Created with Sketch.</desc>
    <g id="Artboard" stroke="none" stroke-width="1" fill="none" fill-rule="evenodd">
        <g id="Group" transform="translate(39.000000, 10.000000)" fill="#75CCFF">
            <g id="Group-3">
                <path d="M171.779564,0 C264.802954,0.880632416 347.52601,83.4826798 340.593225,184.649732 C334.921566,267.418144 280.52272,344.465629 206.835462,386.943093 C191.299752,395.899655 175.13007,404.302798 156.734671,397.546332 C136.471441,390.104033 118.43393,377.341441 101.453037,363.512754 C35.9358307,310.153644 -11.7790465,227.901303 2.5568899,141.822561 C15.4442355,64.4491364 86.1934107,1.311824 168.480186,0.0114588314 C169.581115,0 170.678635,0 171.779564,0 Z M171,56 C106.934969,56 55,107.934969 55,172 C55,236.065031 106.934969,288 171,288 C235.065031,288 287,236.065031 287,172 C287,107.934969 235.065031,56 171,56 Z" id="Combined-Shape"></path>
            </g>
            <path d="M189.359309,91.1871782 L152.70136,91.1871782 L152.70136,175.750287 C152.704052,180.110134 154.662818,184.232931 158.026133,186.957834 L205.500501,225.364924 L228.679208,196.741604 L189.408217,164.940583 L189.359309,91.1871782 Z" id="Style"></path>
        </g>
    </g>
</svg>